<svg t="1722417692253" class="icon" viewBox="0 0 1024 1024" version="1.1" xmlns="http://www.w3.org/2000/svg" p-id="4334" width="200" height="200"><path d="M511.968 959.936c298.688 0 447.968-200.576 447.968-448 0-247.36-149.28-447.936-448-447.936C213.28 64 64 264.576 64 511.968c0 247.392 149.248 447.968 447.968 447.968z" fill="#FFB02E" p-id="4335"></path><path d="M246.624 521.376a32 32 0 0 0-45.248 45.248C218.176 583.424 260.48 608 320 608c59.52 0 101.824-24.576 118.624-41.376a32 32 0 0 0-45.248-45.248C388.8 525.92 362.88 544 320 544c-42.88 0-68.8-18.08-73.376-22.624zM630.624 521.376a32 32 0 0 0-45.248 45.248C602.176 583.424 644.48 608 704 608c59.52 0 101.824-24.576 118.624-41.376a32 32 0 0 0-45.248-45.248C772.8 525.92 746.88 544 704 544c-42.88 0-68.8-18.08-73.376-22.624z" fill="#402A32" p-id="4336"></path><path d="M448 768a64 64 0 1 1 128 0 64 64 0 0 1-128 0z" fill="#BB1D80" p-id="4337"></path><path d="M920.96 75.968a32 32 0 0 1 3.648 34.336l-64.864 129.792 60.48-15.136a32 32 0 1 1 15.52 62.08l-128 32a32 32 0 0 1-36.352-45.344l64.864-129.792-60.48 15.136a32 32 0 1 1-15.52-62.08l128-32a32 32 0 0 1 32.704 11.008zM608 208a16 16 0 0 1 16-16h96a16 16 0 0 1 12.8 25.6L656 320h64a16 16 0 0 1 0 32h-96a16 16 0 0 1-12.8-25.6L688 224h-64a16 16 0 0 1-16-16zM469.056 256.832a16 16 0 0 0-10.112 30.336l62.048 20.704-80.96 46.24a16 16 0 0 0 2.88 29.056l96 32a16 16 0 0 0 10.144-30.336l-62.048-20.704 80.96-46.24a16 16 0 0 0-2.88-29.056l-96-32z" fill="#00A6ED" p-id="4338"></path></svg>